<svg width="36" height="36" viewBox="0 0 36 36" fill="none" xmlns="http://www.w3.org/2000/svg">
<rect width="36" height="36" rx="18" fill="#FFE808"/>
<rect width="22" height="22" transform="translate(7 7)" fill="#0CA7C6"/>
<path d="M21.8405 8.83301H14.1588C10.8222 8.83301 8.83301 10.8222 8.83301 14.1588V21.8313C8.83301 25.1772 10.8222 27.1663 14.1588 27.1663H21.8313C25.168 27.1663 27.1572 25.1772 27.1572 21.8405V14.1588C27.1663 10.8222 25.1772 8.83301 21.8405 8.83301ZM17.5413 22.8122C17.5413 23.1422 17.2113 23.3622 16.9088 23.2338C15.7997 22.7572 14.3513 22.3172 13.343 22.1888L13.1688 22.1705C12.6097 22.0972 12.1513 21.5747 12.1513 21.0063V13.948C12.1513 13.2422 12.7197 12.7197 13.4163 12.7747C14.5622 12.8663 16.258 13.4163 17.3213 14.0213C17.468 14.1038 17.5413 14.2597 17.5413 14.4155V22.8122ZM23.848 20.9972C23.848 21.5655 23.3897 22.088 22.8305 22.1613L22.638 22.1797C21.6388 22.3172 20.1997 22.748 19.0905 23.2155C18.788 23.3438 18.458 23.1238 18.458 22.7938V14.4063C18.458 14.2413 18.5405 14.0855 18.6872 14.003C19.7505 13.4072 21.4097 12.8755 22.5372 12.7747H22.5738C23.2797 12.7747 23.848 13.343 23.848 14.0488V20.9972Z" fill="#FCFCFC"/>
</svg>
